# xmcd
#
# Track frame offsets:
#	150
#	14199
#	34554
#	55496
#	74143
#	91793
#	106587
#	120419
#	136792
#	151720
#	165368
#	181700
#	195709
#	212130
#	225909
#	239740
#	251846
#	266160
#
# Disc length: 3732 seconds
#
# Revision: 1
# Processed by: cddbd v1.4PL0 Copyright (c) Steve Scherf et al.
# Submitted via: audiograbber 1.82.01
#
DISCID=f00e9212
DTITLE=De Kröetsch - Fröh Kröetsch
DYEAR=1900
DGENRE=Karneval
TTITLE0=Samba Colonia
TTITLE1=Minge Verein
TTITLE2=Keene Daach Ohne Laache
TTITLE3=Ich War Noch Nie Op Mallorca
TTITLE4=Hallo Leo
TTITLE5=Lisbeth
TTITLE6=Käjeltour Am Drachefels
TTITLE7=Spaß Am Levve
TTITLE8=Dreimarkfuffzich
TTITLE9=Et Fiere
TTITLE10=Echt Kölsche Jonge
TTITLE11=Cuba
TTITLE12=Fastelovendspäd
TTITLE13=Läv Jede Daach
TTITLE14=Ömmesöns
TTITLE15=Net Emmer
TTITLE16=Fründe
TTITLE17=Jede Jeck Es Anders
EXTD=
EXTT0=
EXTT1=
EXTT2=
EXTT3=
EXTT4=
EXTT5=
EXTT6=
EXTT7=
EXTT8=
EXTT9=
EXTT10=
EXTT11=
EXTT12=
EXTT13=
EXTT14=
EXTT15=
EXTT16=
EXTT17=
PLAYORDER=
